<?xml version="1.0" encoding="utf-8"?>
<!-- Generator: Adobe Illustrator 15.1.0, SVG Export Plug-In . SVG Version: 6.00 Build 0)  -->
<!DOCTYPE svg PUBLIC "-//W3C//DTD SVG 1.1//EN" "http://www.w3.org/Graphics/SVG/1.1/DTD/svg11.dtd">
<svg version="1.1" id="Layer_1" xmlns="http://www.w3.org/2000/svg" xmlns:xlink="http://www.w3.org/1999/xlink" x="0px" y="0px"
	 width="100px" height="100px" viewBox="0 0 100 100" enable-background="new 0 0 100 100" xml:space="preserve">
<g id="XMLID_13_">
	<g>
		<g id="XMLID_10_">
			<g>
				<path fill="none" d="M69.902,72.704L58.967,61.77c-2.996,1.961-6.578,3.11-10.444,3.11c-10.539,0-19.062-8.542-19.062-19.081
					c0-10.519,8.522-19.061,19.062-19.061c10.521,0,19.06,8.542,19.06,19.061c0,3.679-1.036,7.107-2.828,10.012l11.013,11.01
					c0.584,0.568,0.094,1.981-1.076,3.148l-1.64,1.645C71.882,72.779,70.468,73.27,69.902,72.704z M61.249,45.799
					c0-7.033-5.694-12.727-12.727-12.727c-7.033,0-12.745,5.694-12.745,12.727c0,7.033,5.712,12.745,12.745,12.745
					C55.555,58.544,61.249,52.833,61.249,45.799z"/>
			</g>
		</g>
	</g>
</g>
</svg>
