<?xml version="1.0" encoding="utf-8"?>
<!-- Generator: Adobe Illustrator 15.1.0, SVG Export Plug-In . SVG Version: 6.00 Build 0)  -->
<!DOCTYPE svg PUBLIC "-//W3C//DTD SVG 1.1//EN" "http://www.w3.org/Graphics/SVG/1.1/DTD/svg11.dtd">
<svg version="1.1" id="Layer_1" xmlns="http://www.w3.org/2000/svg" xmlns:xlink="http://www.w3.org/1999/xlink" x="0px" y="0px"
	 width="100px" height="100px" viewBox="0 0 100 100" enable-background="new 0 0 100 100" xml:space="preserve">
<g id="XMLID_13_">
	<g>
		<g id="XMLID_10_">
			<g>
				<path fill="#FFFFFF" d="M74.254,31.01L64.169,42.733c2.18,2.841,3.594,6.327,3.884,10.182
					c0.789,10.51-7.091,19.648-17.601,20.438c-10.49,0.787-19.646-7.071-20.435-17.582c-0.788-10.491,7.091-19.646,17.58-20.433
					c3.669-0.276,7.165,0.501,10.195,2.07l10.154-11.806c0.523-0.625,1.969-0.242,3.221,0.837l1.763,1.512
					C74.181,29.03,74.775,30.404,74.254,31.01z M48.072,41.653c-7.013,0.526-12.265,6.631-11.739,13.645
					c0.527,7.013,6.633,12.283,13.646,11.756c7.013-0.526,12.282-6.649,11.755-13.663C61.208,46.377,55.087,41.127,48.072,41.653z"
					/>
			</g>
		</g>
	</g>
</g>
</svg>
